<?xml version="1.0" encoding="UTF-8" standalone="no"?>
<svg
        height="24px"
        viewBox="0 0 24 24"
        width="24px"
        fill="#000000"
        version="1.1"
        id="svg6"
        sodipodi:docname="tap_and_play.svg"
        inkscape:version="1.1.1 (3bf5ae0d25, 2021-09-20)"
        xmlns:inkscape="http://www.inkscape.org/namespaces/inkscape"
        xmlns:sodipodi="http://sodipodi.sourceforge.net/DTD/sodipodi-0.dtd"
        xmlns="http://www.w3.org/2000/svg"
>
  <defs
     id="defs10" />
  <sodipodi:namedview
     id="namedview8"
     pagecolor="#ffffff"
     bordercolor="#666666"
     borderopacity="1.0"
     inkscape:pageshadow="2"
     inkscape:pageopacity="0.0"
     inkscape:pagecheckerboard="0"
     showgrid="false"
     inkscape:zoom="29.958333"
     inkscape:cx="11.98331"
     inkscape:cy="11.98331"
     inkscape:window-width="1920"
     inkscape:window-height="1028"
     inkscape:window-x="-6"
     inkscape:window-y="-6"
     inkscape:window-maximized="1"
     inkscape:current-layer="svg6" />
  <path
     d="M0 0h24v24H0V0z"
     fill="none"
     id="path2" />
  <path
     d="M 17,1.01 7,1 C 5.9,1 5,1.9 5,3 v 7.37 c 0.69,0.16 1.36,0.37 2,0.64 V 5 h 10 v 13 h -3.03 c 0.52,1.25 0.84,2.59 0.95,4 H 17 c 1.1,0 2,-0.9 2,-2 V 3 C 19,1.9 18.1,1.01 17,1.01 Z"
     id="path14953"
     style="font-variation-settings:normal;opacity:1;vector-effect:none;fill:#001c32;fill-opacity:1;stroke-width:1;stroke-linecap:butt;stroke-linejoin:miter;stroke-miterlimit:4;stroke-dasharray:none;stroke-dashoffset:0;stroke-opacity:1;-inkscape-stroke:none;stop-color:#000000;stop-opacity:1" />
  <path
     d="m 2,12 v 2 c 4.97,0 9,4.03 9,9 h 2 C 13,16.92 8.08,12 2,12 Z"
     id="path14951"
     style="font-variation-settings:normal;opacity:1;vector-effect:none;fill:#91919d;fill-opacity:1;stroke-width:1;stroke-linecap:butt;stroke-linejoin:miter;stroke-miterlimit:4;stroke-dasharray:none;stroke-dashoffset:0;stroke-opacity:1;-inkscape-stroke:none;stop-color:#000000;stop-opacity:1" />
  <path
     d="m 2,20 v 3 H 5 C 5,21.34 3.66,20 2,20 Z"
     id="path14949"
     style="font-variation-settings:normal;opacity:1;vector-effect:none;fill:#ff512f;fill-opacity:1;stroke-width:1;stroke-linecap:butt;stroke-linejoin:miter;stroke-miterlimit:4;stroke-dasharray:none;stroke-dashoffset:0;stroke-opacity:1;-inkscape-stroke:none;stop-color:#000000;stop-opacity:1" />
  <path
     d="m 2,16 v 2 c 2.76,0 5,2.24 5,5 H 9 C 9,19.13 5.87,16 2,16 Z"
     id="path4"
     style="font-variation-settings:normal;opacity:1;vector-effect:none;fill:#317aff;fill-opacity:1;stroke-width:1;stroke-linecap:butt;stroke-linejoin:miter;stroke-miterlimit:4;stroke-dasharray:none;stroke-dashoffset:0;stroke-opacity:1;-inkscape-stroke:none;stop-color:#000000;stop-opacity:1" />
</svg>
