<svg id="Layer_1" data-name="Layer 1" xmlns="http://www.w3.org/2000/svg" viewBox="0 0 200 180.37"><defs><style>.cls-1{fill:#ff7358;}</style></defs><path class="cls-1" d="M160.35,48.29l-8.84,39.08L140.22,40.16l-39.64-16L89.9,71.36,80.45,16,40.8,0,0,180.37H43.27L55.79,125l9.45,55.34h43.27l10.68-47.21h0l11.28,47.21h43.27L200,64.3ZM40.07,176.37H5L43.66,5.47l32.14,13Zm18-61.56,20-88.57,9.44,55.34-20,88.57Zm47.21,61.56H70.24l33.2-146.76,32.13,13Zm27.16-4.84-11.28-47.21,17-75.32,11.29,47.21Zm38.08,4.84H135.48L163.22,53.76l32.13,13Z"/></svg>
